<svg xmlns="http://www.w3.org/2000/svg" id="OBJECTS_copia" data-name="OBJECTS copia" viewBox="32.85 61.26 443.11 311.03">
  <defs>
    <style>
      .cls-1 {
        fill: #fff;
      }

      .cls-2 {
        stroke-dasharray: 0 0 3.05 7.11;
        stroke-width: 2.02px;
      }

      .cls-2, .cls-3, .cls-4, .cls-5, .cls-6, .cls-7 {
        fill: none;
        stroke: #fff;
      }

      .cls-2, .cls-3, .cls-4, .cls-5, .cls-7 {
        stroke-linecap: round;
        stroke-linejoin: round;
      }

      .cls-3 {
        stroke-width: 2.26px;
      }

      .cls-4 {
        stroke-dasharray: 0 0 3.27 7.62;
      }

      .cls-4, .cls-7 {
        stroke-width: 2.16px;
      }

      .cls-5 {
        stroke-width: 2.42px;
      }

      .cls-6 {
        stroke-miterlimit: 10;
        stroke-width: 3.27px;
      }
    </style>
  </defs>
  <g>
    <path class="cls-1" d="M196.91,288.72h-13.11v23.05h-31.76v-23.05h-47.48v-23.62l49.52-72.4h29.73v71.99h13.11v24.03Zm-44.87-24.03v-13.85c0-2.61,.09-6.12,.28-10.55,.19-4.42,.34-6.75,.45-6.96h-.9c-1.85,4.18-3.94,8.09-6.27,11.73l-13.19,19.63h19.63Z"/>
    <path class="cls-1" d="M291.3,252.4c0,21.07-3.53,36.5-10.59,46.3-7.06,9.8-17.86,14.7-32.41,14.7s-24.95-5.12-32.17-15.35c-7.22-10.23-10.83-25.45-10.83-45.65s3.53-36.7,10.59-46.59c7.06-9.88,17.86-14.82,32.41-14.82s24.88,5.14,32.13,15.43c7.25,10.29,10.87,25.61,10.87,45.97Zm-54,0c0,13.47,.84,22.72,2.53,27.77,1.68,5.05,4.51,7.57,8.47,7.57s6.85-2.61,8.51-7.82c1.66-5.21,2.48-14.39,2.48-27.53s-.84-22.44-2.52-27.73c-1.68-5.29-4.51-7.94-8.47-7.94s-6.79,2.55-8.47,7.66c-1.68,5.1-2.53,14.44-2.53,28.02Z"/>
    <path class="cls-1" d="M392.37,288.72h-13.11v23.05h-31.76v-23.05h-47.48v-23.62l49.52-72.4h29.73v71.99h13.11v24.03Zm-44.87-24.03v-13.85c0-2.61,.09-6.12,.29-10.55,.19-4.42,.34-6.75,.45-6.96h-.9c-1.85,4.18-3.94,8.09-6.27,11.73l-13.19,19.63h19.63Z"/>
  </g>
  <g>
    <line class="cls-7" x1="56.83" y1="219.12" x2="104.97" y2="219.12"/>
    <line class="cls-7" x1="116.52" y1="219.12" x2="126.8" y2="219.12"/>
    <line class="cls-7" x1="48.11" y1="205.57" x2="134.29" y2="205.57"/>
    <line class="cls-7" x1="41.02" y1="205.57" x2="33.93" y2="205.57"/>
    <line class="cls-7" x1="48.11" y1="192.7" x2="76.72" y2="192.7"/>
    <line class="cls-7" x1="84.38" y1="192.7" x2="144.47" y2="192.7"/>
  </g>
  <g>
    <line class="cls-7" x1="397.09" y1="326.61" x2="448.6" y2="326.61"/>
    <line class="cls-7" x1="456.98" y1="326.61" x2="464.43" y2="326.61"/>
    <line class="cls-7" x1="407.38" y1="313.06" x2="474.88" y2="313.06"/>
    <line class="cls-7" x1="402.23" y1="313.06" x2="397.09" y2="313.06"/>
    <line class="cls-7" x1="397.09" y1="300.19" x2="428.12" y2="300.19"/>
    <line class="cls-7" x1="433.68" y1="300.19" x2="456.98" y2="300.19"/>
  </g>
  <g>
    <path class="cls-6" d="M203.08,288.26h-13.11v23.05h-31.76v-23.05h-47.48v-23.62l49.52-72.4h29.73v71.99h13.11v24.03Zm-44.87-24.03v-13.85c0-2.61,.09-6.12,.28-10.55,.19-4.42,.34-6.75,.45-6.96h-.9c-1.85,4.18-3.94,8.09-6.27,11.73l-13.19,19.63h19.63Z"/>
    <path class="cls-6" d="M297.47,251.94c0,21.07-3.53,36.5-10.59,46.3-7.06,9.8-17.86,14.7-32.41,14.7s-24.95-5.12-32.17-15.35c-7.22-10.23-10.83-25.45-10.83-45.65s3.53-36.7,10.59-46.59c7.06-9.88,17.86-14.82,32.41-14.82s24.88,5.14,32.13,15.43c7.25,10.29,10.87,25.61,10.87,45.97Zm-54,0c0,13.47,.84,22.72,2.53,27.77,1.68,5.05,4.51,7.57,8.47,7.57s6.85-2.61,8.51-7.82c1.66-5.21,2.48-14.39,2.48-27.53s-.84-22.44-2.52-27.73c-1.68-5.29-4.51-7.94-8.47-7.94s-6.79,2.55-8.47,7.65c-1.68,5.1-2.53,14.44-2.53,28.02Z"/>
    <path class="cls-6" d="M398.54,288.26h-13.11v23.05h-31.76v-23.05h-47.48v-23.62l49.52-72.4h29.73v71.99h13.11v24.03Zm-44.87-24.03v-13.85c0-2.61,.09-6.12,.29-10.55,.19-4.42,.34-6.75,.45-6.96h-.9c-1.85,4.18-3.94,8.09-6.27,11.73l-13.19,19.63h19.63Z"/>
  </g>
  <g>
    <line class="cls-7" x1="419.57" y1="216.18" x2="419.57" y2="205.14"/>
    <line class="cls-7" x1="411.86" y1="219.37" x2="404.06" y2="211.57"/>
    <line class="cls-7" x1="408.67" y1="227.08" x2="397.63" y2="227.08"/>
    <line class="cls-7" x1="411.86" y1="234.78" x2="404.06" y2="242.59"/>
    <line class="cls-7" x1="419.57" y1="237.98" x2="419.57" y2="249.02"/>
    <line class="cls-7" x1="427.28" y1="234.78" x2="435.08" y2="242.59"/>
    <line class="cls-7" x1="430.47" y1="227.08" x2="441.51" y2="227.08"/>
    <line class="cls-7" x1="427.28" y1="219.37" x2="435.08" y2="211.57"/>
  </g>
  <g>
    <line class="cls-7" x1="73.34" y1="271.15" x2="73.34" y2="263.17"/>
    <line class="cls-7" x1="67.77" y1="273.46" x2="62.13" y2="267.81"/>
    <line class="cls-7" x1="65.47" y1="279.03" x2="57.49" y2="279.03"/>
    <line class="cls-7" x1="67.77" y1="284.6" x2="62.13" y2="290.24"/>
    <line class="cls-7" x1="73.34" y1="286.9" x2="73.34" y2="294.88"/>
    <line class="cls-7" x1="78.91" y1="284.6" x2="84.55" y2="290.24"/>
    <line class="cls-7" x1="81.22" y1="279.03" x2="89.2" y2="279.03"/>
    <line class="cls-7" x1="78.91" y1="273.46" x2="84.55" y2="267.81"/>
  </g>
  <g>
    <line class="cls-7" x1="289.26" y1="106.34" x2="289.26" y2="98.36"/>
    <line class="cls-7" x1="283.69" y1="108.64" x2="278.05" y2="103"/>
    <line class="cls-7" x1="281.39" y1="114.21" x2="273.41" y2="114.21"/>
    <line class="cls-7" x1="283.69" y1="119.78" x2="278.05" y2="125.42"/>
    <line class="cls-7" x1="289.26" y1="122.09" x2="289.26" y2="130.07"/>
    <line class="cls-7" x1="294.83" y1="119.78" x2="300.48" y2="125.42"/>
    <line class="cls-7" x1="297.14" y1="114.21" x2="305.12" y2="114.21"/>
    <line class="cls-7" x1="294.83" y1="108.64" x2="300.48" y2="103"/>
  </g>
  <rect class="cls-5" x="112.96" y="327.98" width="273.76" height="43.1"/>
  <g>
    <path class="cls-1" d="M154.1,345.52h-2.68v-.97h6.53v.97h-2.69v7.85h-1.15v-7.85Z"/>
    <path class="cls-1" d="M158.79,344.08h1.15v3.95h.03c.18-.33,.47-.62,.82-.81,.34-.2,.75-.33,1.18-.33,.85,0,2.21,.52,2.21,2.71v3.77h-1.15v-3.64c0-1.02-.38-1.88-1.46-1.88-.75,0-1.33,.52-1.54,1.15-.06,.16-.08,.33-.08,.55v3.82h-1.15v-9.28Z"/>
    <path class="cls-1" d="M166.69,350.41c.03,1.56,1.02,2.2,2.17,2.2,.82,0,1.32-.14,1.75-.33l.2,.82c-.41,.18-1.1,.39-2.1,.39-1.95,0-3.11-1.28-3.11-3.19s1.12-3.41,2.97-3.41c2.07,0,2.62,1.82,2.62,2.98,0,.24-.03,.42-.04,.54h-4.45Zm3.37-.82c.01-.73-.3-1.87-1.6-1.87-1.16,0-1.67,1.07-1.77,1.87h3.36Z"/>
    <path class="cls-1" d="M175.36,349.01c0-.75-.01-1.39-.05-1.97h1.01l.04,1.24h.05c.29-.85,.98-1.39,1.75-1.39,.13,0,.22,.01,.33,.04v1.08c-.12-.03-.24-.04-.39-.04-.81,0-1.39,.61-1.54,1.48-.03,.16-.05,.34-.05,.54v3.37h-1.14v-4.35Z"/>
    <path class="cls-1" d="M180.15,350.41c.03,1.56,1.02,2.2,2.17,2.2,.82,0,1.32-.14,1.75-.33l.2,.82c-.41,.18-1.1,.39-2.1,.39-1.95,0-3.11-1.28-3.11-3.19s1.12-3.41,2.97-3.41c2.07,0,2.62,1.82,2.62,2.98,0,.24-.03,.42-.04,.54h-4.45Zm3.37-.82c.01-.73-.3-1.87-1.6-1.87-1.16,0-1.67,1.07-1.77,1.87h3.36Z"/>
    <path class="cls-1" d="M190.37,352.39h-.03c-.34,.63-1.05,1.12-2.07,1.12-1.48,0-2.68-1.28-2.68-3.2,0-2.37,1.53-3.41,2.86-3.41,.98,0,1.63,.48,1.95,1.1h.03l.04-.95h1.09c-.03,.54-.04,1.08-.04,1.74v7.18h-1.15v-3.57Zm0-2.79c0-.16-.01-.34-.05-.48-.17-.71-.78-1.31-1.65-1.31-1.19,0-1.91,1.01-1.91,2.43,0,1.25,.6,2.35,1.87,2.35,.75,0,1.39-.46,1.65-1.26,.05-.16,.09-.38,.09-.55v-1.19Z"/>
    <path class="cls-1" d="M198.71,351.64c0,.65,.01,1.23,.05,1.73h-1.02l-.07-1.03h-.03c-.3,.51-.97,1.18-2.09,1.18-.99,0-2.18-.55-2.18-2.77v-3.7h1.15v3.5c0,1.2,.37,2.01,1.41,2.01,.77,0,1.31-.54,1.52-1.05,.07-.17,.1-.38,.1-.59v-3.88h1.15v4.6Z"/>
    <path class="cls-1" d="M201.26,350.41c.03,1.56,1.02,2.2,2.17,2.2,.82,0,1.32-.14,1.75-.33l.2,.82c-.41,.18-1.1,.39-2.1,.39-1.95,0-3.11-1.28-3.11-3.19s1.12-3.41,2.97-3.41c2.07,0,2.62,1.82,2.62,2.98,0,.24-.03,.42-.04,.54h-4.45Zm3.37-.82c.01-.73-.3-1.87-1.6-1.87-1.16,0-1.67,1.07-1.77,1.87h3.36Z"/>
    <path class="cls-1" d="M207.01,352.19c.34,.22,.94,.46,1.52,.46,.84,0,1.23-.42,1.23-.94s-.33-.85-1.18-1.16c-1.14-.41-1.67-1.03-1.67-1.79,0-1.02,.82-1.86,2.18-1.86,.64,0,1.2,.18,1.56,.39l-.29,.84c-.25-.16-.71-.37-1.29-.37-.68,0-1.06,.39-1.06,.86,0,.52,.38,.76,1.2,1.07,1.1,.42,1.66,.97,1.66,1.91,0,1.11-.86,1.9-2.37,1.9-.69,0-1.33-.17-1.78-.43l.29-.88Z"/>
    <path class="cls-1" d="M213.72,345.22v1.82h1.65v.88h-1.65v3.41c0,.79,.22,1.23,.86,1.23,.3,0,.52-.04,.67-.08l.05,.86c-.22,.09-.58,.16-1.02,.16-.54,0-.97-.17-1.24-.48-.33-.34-.44-.9-.44-1.65v-3.45h-.98v-.88h.98v-1.52l1.12-.3Z"/>
    <path class="cls-1" d="M217.23,350.41c.03,1.56,1.02,2.2,2.17,2.2,.82,0,1.32-.14,1.75-.33l.2,.82c-.41,.18-1.1,.39-2.1,.39-1.95,0-3.11-1.28-3.11-3.19s1.12-3.41,2.97-3.41c2.07,0,2.62,1.82,2.62,2.98,0,.24-.03,.42-.04,.54h-4.45Zm3.37-.82c.01-.73-.3-1.87-1.6-1.87-1.16,0-1.67,1.07-1.77,1.87h3.36Z"/>
    <path class="cls-1" d="M228.6,344.08v7.65c0,.56,.01,1.2,.05,1.63h-1.03l-.05-1.1h-.03c-.35,.71-1.12,1.24-2.16,1.24-1.53,0-2.71-1.29-2.71-3.22-.01-2.11,1.29-3.4,2.84-3.4,.97,0,1.62,.46,1.91,.97h.03v-3.78h1.15Zm-1.15,5.53c0-.14-.01-.34-.05-.48-.17-.73-.8-1.33-1.66-1.33-1.19,0-1.9,1.05-1.9,2.45,0,1.28,.63,2.34,1.87,2.34,.77,0,1.48-.51,1.69-1.37,.04-.16,.05-.31,.05-.5v-1.1Z"/>
    <path class="cls-1" d="M233.28,349.1c0-.81-.03-1.46-.05-2.07h1.03l.05,1.08h.03c.47-.77,1.22-1.23,2.25-1.23,1.53,0,2.68,1.29,2.68,3.22,0,2.28-1.39,3.4-2.88,3.4-.84,0-1.57-.37-1.95-.99h-.03v3.44h-1.14v-6.85Zm1.14,1.69c0,.17,.03,.33,.05,.47,.21,.8,.9,1.35,1.73,1.35,1.22,0,1.92-.99,1.92-2.45,0-1.27-.67-2.35-1.88-2.35-.78,0-1.52,.56-1.74,1.43-.04,.14-.08,.31-.08,.47v1.08Z"/>
    <path class="cls-1" d="M244.22,353.37l-.09-.8h-.04c-.35,.5-1.03,.94-1.94,.94-1.28,0-1.94-.9-1.94-1.82,0-1.53,1.36-2.37,3.81-2.35v-.13c0-.52-.14-1.46-1.44-1.46-.59,0-1.2,.18-1.65,.47l-.26-.76c.52-.34,1.28-.56,2.08-.56,1.94,0,2.41,1.32,2.41,2.59v2.37c0,.55,.03,1.08,.1,1.52h-1.05Zm-.17-3.23c-1.26-.03-2.68,.2-2.68,1.42,0,.75,.5,1.1,1.09,1.1,.82,0,1.35-.52,1.53-1.06,.04-.12,.07-.25,.07-.37v-1.1Z"/>
    <path class="cls-1" d="M252.47,347.04c-.03,.46-.05,.97-.05,1.74v3.67c0,1.45-.29,2.34-.9,2.89-.61,.58-1.5,.76-2.3,.76s-1.6-.18-2.11-.52l.29-.88c.42,.26,1.07,.5,1.86,.5,1.18,0,2.04-.62,2.04-2.21v-.71h-.03c-.35,.59-1.03,1.06-2.01,1.06-1.57,0-2.69-1.33-2.69-3.09,0-2.14,1.4-3.36,2.85-3.36,1.1,0,1.7,.58,1.97,1.1h.03l.05-.95h1.01Zm-1.19,2.5c0-.2-.01-.37-.07-.52-.21-.67-.77-1.22-1.61-1.22-1.1,0-1.88,.93-1.88,2.39,0,1.24,.63,2.28,1.87,2.28,.71,0,1.35-.44,1.6-1.18,.07-.2,.09-.42,.09-.61v-1.14Z"/>
    <path class="cls-1" d="M254.96,350.41c.03,1.56,1.02,2.2,2.17,2.2,.82,0,1.32-.14,1.75-.33l.2,.82c-.41,.18-1.1,.39-2.11,.39-1.95,0-3.11-1.28-3.11-3.19s1.12-3.41,2.97-3.41c2.07,0,2.62,1.82,2.62,2.98,0,.24-.03,.42-.04,.54h-4.45Zm3.37-.82c.01-.73-.3-1.87-1.59-1.87-1.16,0-1.67,1.07-1.77,1.87h3.36Z"/>
    <path class="cls-1" d="M269.1,344.08v7.65c0,.56,.01,1.2,.05,1.63h-1.03l-.05-1.1h-.03c-.35,.71-1.12,1.24-2.16,1.24-1.53,0-2.71-1.29-2.71-3.22-.01-2.11,1.29-3.4,2.84-3.4,.97,0,1.62,.46,1.91,.97h.03v-3.78h1.15Zm-1.15,5.53c0-.14-.01-.34-.05-.48-.17-.73-.8-1.33-1.66-1.33-1.19,0-1.9,1.05-1.9,2.45,0,1.28,.63,2.34,1.87,2.34,.77,0,1.48-.51,1.69-1.37,.04-.16,.05-.31,.05-.5v-1.1Z"/>
    <path class="cls-1" d="M276.74,350.15c0,2.34-1.62,3.36-3.15,3.36-1.71,0-3.03-1.25-3.03-3.26,0-2.12,1.39-3.36,3.14-3.36s3.05,1.32,3.05,3.26Zm-5.02,.07c0,1.39,.8,2.43,1.92,2.43s1.92-1.03,1.92-2.46c0-1.07-.54-2.43-1.9-2.43s-1.95,1.26-1.95,2.46Z"/>
    <path class="cls-1" d="M278.82,350.41c.03,1.56,1.02,2.2,2.17,2.2,.82,0,1.32-.14,1.75-.33l.2,.82c-.41,.18-1.1,.39-2.11,.39-1.95,0-3.11-1.28-3.11-3.19s1.12-3.41,2.97-3.41c2.07,0,2.62,1.82,2.62,2.98,0,.24-.03,.42-.04,.54h-4.45Zm3.37-.82c.01-.73-.3-1.87-1.59-1.87-1.16,0-1.67,1.07-1.77,1.87h3.36Z"/>
    <path class="cls-1" d="M284.57,352.19c.34,.22,.94,.46,1.52,.46,.84,0,1.23-.42,1.23-.94s-.33-.85-1.18-1.16c-1.14-.41-1.67-1.03-1.67-1.79,0-1.02,.82-1.86,2.18-1.86,.64,0,1.2,.18,1.56,.39l-.29,.84c-.25-.16-.71-.37-1.29-.37-.68,0-1.06,.39-1.06,.86,0,.52,.38,.76,1.2,1.07,1.1,.42,1.66,.97,1.66,1.91,0,1.11-.86,1.9-2.37,1.9-.69,0-1.33-.17-1.78-.43l.29-.88Z"/>
    <path class="cls-1" d="M292.68,348.75c0-.65-.01-1.19-.05-1.71h1.02l.07,1.05h.03c.31-.6,1.05-1.19,2.09-1.19,.88,0,2.24,.52,2.24,2.69v3.78h-1.15v-3.65c0-1.02-.38-1.87-1.46-1.87-.76,0-1.35,.54-1.54,1.18-.05,.14-.08,.34-.08,.54v3.81h-1.15v-4.62Z"/>
    <path class="cls-1" d="M305.66,350.15c0,2.34-1.62,3.36-3.15,3.36-1.71,0-3.03-1.25-3.03-3.26,0-2.12,1.39-3.36,3.14-3.36s3.05,1.32,3.05,3.26Zm-5.02,.07c0,1.39,.8,2.43,1.92,2.43s1.92-1.03,1.92-2.46c0-1.07-.54-2.43-1.9-2.43s-1.95,1.26-1.95,2.46Z"/>
    <path class="cls-1" d="M308.49,345.22v1.82h1.65v.88h-1.65v3.41c0,.79,.22,1.23,.86,1.23,.3,0,.52-.04,.67-.08l.05,.86c-.22,.09-.58,.16-1.02,.16-.54,0-.97-.17-1.24-.48-.33-.34-.45-.9-.45-1.65v-3.45h-.98v-.88h.98v-1.52l1.12-.3Z"/>
    <path class="cls-1" d="M314.85,350.41c.03,1.56,1.02,2.2,2.17,2.2,.82,0,1.32-.14,1.75-.33l.2,.82c-.41,.18-1.1,.39-2.11,.39-1.95,0-3.11-1.28-3.11-3.19s1.12-3.41,2.97-3.41c2.07,0,2.62,1.82,2.62,2.98,0,.24-.03,.42-.04,.54h-4.45Zm3.37-.82c.01-.73-.3-1.87-1.59-1.87-1.16,0-1.67,1.07-1.77,1.87h3.36Z"/>
    <path class="cls-1" d="M321.25,347.04l.9,1.36c.24,.35,.43,.68,.64,1.03h.04c.21-.38,.42-.71,.63-1.05l.89-1.35h1.24l-2.16,3.06,2.22,3.27h-1.31l-.93-1.43c-.25-.37-.46-.72-.68-1.1h-.03c-.21,.38-.43,.72-.67,1.1l-.92,1.43h-1.27l2.25-3.23-2.14-3.1h1.28Z"/>
    <path class="cls-1" d="M328.05,345.26c.01,.39-.27,.71-.73,.71-.41,0-.69-.31-.69-.71s.3-.72,.72-.72,.71,.31,.71,.72Zm-1.28,8.11v-6.33h1.15v6.33h-1.15Z"/>
    <path class="cls-1" d="M329.67,352.19c.34,.22,.94,.46,1.52,.46,.84,0,1.23-.42,1.23-.94s-.33-.85-1.18-1.16c-1.14-.41-1.67-1.03-1.67-1.79,0-1.02,.82-1.86,2.18-1.86,.64,0,1.2,.18,1.56,.39l-.29,.84c-.25-.16-.71-.37-1.29-.37-.68,0-1.06,.39-1.06,.86,0,.52,.38,.76,1.2,1.07,1.1,.42,1.66,.97,1.66,1.91,0,1.11-.86,1.9-2.37,1.9-.69,0-1.33-.17-1.78-.43l.29-.88Z"/>
    <path class="cls-1" d="M336.39,345.22v1.82h1.65v.88h-1.65v3.41c0,.79,.22,1.23,.86,1.23,.3,0,.52-.04,.67-.08l.05,.86c-.22,.09-.58,.16-1.02,.16-.54,0-.97-.17-1.24-.48-.33-.34-.45-.9-.45-1.65v-3.45h-.98v-.88h.98v-1.52l1.12-.3Z"/>
    <path class="cls-1" d="M339.01,352.69c0-.48,.33-.82,.79-.82s.77,.34,.77,.82-.3,.82-.79,.82c-.46,0-.77-.35-.77-.82Z"/>
  </g>
  <polyline class="cls-7" points="134.29 173.28 134.29 138.75 313.78 138.75 313.78 215.47"/>
  <polyline class="cls-7" points="250.52 114.21 250.52 157.44 369.54 157.44 369.54 177.11"/>
  <path class="cls-7" d="M138.57,177.56c0,2.37-1.92,4.28-4.28,4.28s-4.28-1.92-4.28-4.28,1.92-4.28,4.28-4.28,4.28,1.92,4.28,4.28Z"/>
  <circle class="cls-7" cx="250.52" cy="109.93" r="4.28"/>
  <path class="cls-7" d="M373.83,181.85c0,2.37-1.92,4.28-4.28,4.28s-4.28-1.92-4.28-4.28,1.92-4.28,4.28-4.28,4.28,1.92,4.28,4.28Z"/>
  <path class="cls-7" d="M318.07,220.46c0,2.37-1.92,4.28-4.28,4.28s-4.28-1.92-4.28-4.28,1.92-4.28,4.28-4.28,4.28,1.92,4.28,4.28Z"/>
  <g>
    <line class="cls-7" x1="106.38" y1="306.24" x2="96.24" y2="316.38"/>
    <line class="cls-7" x1="96.24" y1="306.24" x2="106.38" y2="316.38"/>
  </g>
  <g>
    <line class="cls-7" x1="111.44" y1="159.08" x2="101.31" y2="169.22"/>
    <line class="cls-7" x1="101.31" y1="159.08" x2="111.44" y2="169.22"/>
  </g>
  <g>
    <line class="cls-7" x1="440.15" y1="273.96" x2="430.01" y2="284.09"/>
    <line class="cls-7" x1="430.01" y1="273.96" x2="440.15" y2="284.09"/>
  </g>
  <path class="cls-3" d="M152.55,101.24c-3.23,0-6.19,1.16-8.49,3.09-2.35-7.06-8.99-12.16-16.84-12.16-8.79,0-16.06,6.39-17.49,14.77-.93-.27-1.9-.42-2.91-.42-5.84,0-10.58,4.74-10.58,10.58,0,5.37,4.01,9.8,9.2,10.48v.1h47.11c7.3,0,13.22-5.92,13.22-13.22s-5.92-13.22-13.22-13.22Z"/>
  <path class="cls-7" d="M397.69,168.5c2.35,0,4.5,.84,6.17,2.24,1.7-5.13,6.53-8.83,12.24-8.83,6.38,0,11.67,4.64,12.7,10.73,.67-.19,1.38-.3,2.12-.3,4.24,0,7.69,3.44,7.69,7.69,0,3.9-2.91,7.12-6.69,7.61v.07h-34.22c-5.3,0-9.61-4.3-9.61-9.61s4.3-9.61,9.61-9.61Z"/>
  <path class="cls-7" d="M444.87,350.19c-1.97,0-3.77,.71-5.17,1.88-1.43-4.3-5.48-7.41-10.26-7.41-5.35,0-9.79,3.89-10.65,9-.56-.16-1.16-.25-1.77-.25-3.56,0-6.45,2.89-6.45,6.45,0,3.27,2.44,5.97,5.61,6.38v.06h28.7c4.45,0,8.06-3.61,8.06-8.06s-3.61-8.06-8.06-8.06Z"/>
  <path class="cls-7" d="M55.33,333.2c2.35,0,4.5,.84,6.17,2.24,1.7-5.13,6.53-8.83,12.24-8.83,6.38,0,11.67,4.64,12.7,10.73,.67-.19,1.38-.3,2.12-.3,4.24,0,7.69,3.44,7.69,7.69,0,3.9-2.91,7.12-6.69,7.61v.07H55.33c-5.3,0-9.61-4.3-9.61-9.61s4.3-9.61,9.61-9.61Z"/>
  <path class="cls-4" d="M165.77,94.9s60.44-49.28,142.56-26.58c86.26,23.85,103.53,85.36,103.53,85.36"/>
  <path class="cls-2" d="M74.51,238.12c-23.43,3.63-35.21,53.36-8.85,73.1"/>
  <line class="cls-7" x1="178.59" y1="181.85" x2="178.59" y2="156.5"/>
  <line class="cls-7" x1="172.48" y1="181.85" x2="172.48" y2="169.22"/>
  <line class="cls-7" x1="271.75" y1="187.71" x2="271.75" y2="169.17"/>
  <line class="cls-7" x1="264.8" y1="186.13" x2="264.8" y2="178.44"/>
  <line class="cls-7" x1="258.64" y1="186.13" x2="258.64" y2="173.28"/>
  <line class="cls-7" x1="184.48" y1="181.85" x2="184.48" y2="169.17"/>
  <line class="cls-7" x1="352.48" y1="185.37" x2="352.48" y2="179.7"/>
  <line class="cls-7" x1="346.36" y1="185.37" x2="346.36" y2="171.56"/>
  <line class="cls-7" x1="358.36" y1="185.37" x2="358.36" y2="175.51"/>
</svg>